<svg width="121" height="41" xmlns="http://www.w3.org/2000/svg" xmlns:xlink="http://www.w3.org/1999/xlink" overflow="hidden"><defs><clipPath id="clip0"><rect x="266" y="355" width="121" height="41"/></clipPath><clipPath id="clip1"><rect x="266" y="355" width="120" height="40"/></clipPath><clipPath id="clip2"><rect x="266" y="355" width="120" height="40"/></clipPath></defs><g clip-path="url(#clip0)" transform="translate(-266 -355)"><g clip-path="url(#clip1)"><g clip-path="url(#clip2)"><path d="M0 0 7.72119 4.37417 4.04033 6.51723-3.73054 2.1542-7.04503 4.06756 3.34596 10.066 13.7129 4.08047 3.32191-1.91814ZM3.34596 13.2454-12.5524 4.06792 3.32191-5.09754 19.2198 4.08012Z" fill="#F05D2D" transform="matrix(1 0 0 -1.00596 280.78 369.16)"/><path d="M0 0-3.11397 1.8048-3.11557 11.0194-6.26013 12.8624-6.26013 3.6287-9.40558 5.45259-9.40558 17.7333 0 12.1583ZM-12.5528 22.5606-12.5528 4.32961 3.21635-4.77272 3.21547 13.4571Z" fill="#F05D2D" transform="matrix(1 0 0 -1.00596 279.951 389.414)"/><path d="M0 0-3.14616-1.82372-3.14616 7.40981-6.29054 5.56682-6.29213-3.64779-9.40611-5.45259-9.40611 6.70572 0 12.2807ZM-13.0696 8.00463-13.0696-10.2536 2.7446-1.12192 2.7446 17.1335Z" fill="#F05D2D" transform="matrix(1 0 0 -1.00596 298.107 383.929)"/><path d="M0 0 0 13.6806-9.3932 13.6806-9.3932 0-13.6809 0-13.6809 17.9674 4.28594 17.9674 4.28594 0Z" fill="#F05D2D" transform="matrix(1 0 0 -1.00596 318.972 384.794)"/><path d="M0 0 0 17.9674 17.9677 17.9674 17.9677 10.9443 13.6806 10.9443 13.6806 13.6806 4.28735 13.6806 4.28735 4.28647 13.6806 4.28647 13.6806 7.02328 17.9677 7.02328 17.9677 0Z" fill="#F05D2D" transform="matrix(1 0 0 -1.00596 325.812 384.794)"/><path d="M94.5613 48.6583 103.954 48.6583 103.954 51.212 94.5613 51.212ZM90.2743 44.3717 90.2743 55.4988 103.954 55.4988 103.954 58.0522 90.2743 58.0522 90.2743 62.3392 108.242 62.3392 108.242 44.3717Z" fill="#F05D2D" transform="matrix(1 0 0 -1.00596 256.058 429.43)"/><path d="M0 0 0 4.28647 13.6791 4.28647 13.6791 6.84028 0 6.84028 0 17.9674 17.9674 17.9674 17.9674 13.6806 4.28717 13.6806 4.28717 11.1271 17.9674 11.1271 17.9674 0Z" fill="#F05D2D" transform="matrix(1 0 0 -1.00596 366.854 384.794)"/></g></g></g></svg>